<svg width="496" height="484" viewBox="0 0 496 484" fill="none" xmlns="http://www.w3.org/2000/svg">
<g filter="url(#filter0_d_137_833)">
<path d="M89.918 62.7289C111.97 43.8833 137.624 28.9314 165.729 18.9692" stroke="#EC0000" stroke-width="10" stroke-linecap="round" stroke-linejoin="round"/>
<path d="M73.209 78.4531C78.5147 72.9547 84.0906 67.7018 89.9188 62.7207" stroke="#EC0000" stroke-width="10" stroke-linecap="round" stroke-linejoin="round"/>
<path d="M67.0039 85.1437C69.0307 82.8725 71.0936 80.645 73.2104 78.4526" stroke="#EC0000" stroke-width="10" stroke-linecap="round" stroke-linejoin="round"/>
<path d="M25.3867 151.589C35.4036 127.122 49.5552 104.707 67.0127 85.1514" stroke="#EC0000" stroke-width="10" stroke-linecap="round" stroke-linejoin="round"/>
<path d="M21.359 313.203C14.648 294.165 10.4143 274.012 9 253.106" stroke="#EC0000" stroke-width="10" stroke-linecap="round" stroke-linejoin="round"/>
<path d="M247.504 470.36C142.66 470.36 53.5798 404.633 21.3672 313.202" stroke="#EC0000" stroke-width="10" stroke-linecap="round" stroke-linejoin="round"/>
<path d="M323.695 17.0664C418.342 48.0314 486.515 135.103 486.515 237.68C486.515 282.93 473.246 325.164 450.285 360.9" stroke="#EC0000" stroke-width="10" stroke-linecap="round" stroke-linejoin="round"/>
<path d="M286.547 8.08643C299.302 10.1297 311.715 13.1464 323.696 17.0751" stroke="#EC0000" stroke-width="10" stroke-linecap="round" stroke-linejoin="round"/>
<path d="M264.809 5.59619C272.15 6.10482 279.402 6.93792 286.545 8.08672" stroke="#EC0000" stroke-width="10" stroke-linecap="round" stroke-linejoin="round"/>
<path d="M247.506 5C253.325 5 259.099 5.2017 264.81 5.59633" stroke="#EC0000" stroke-width="10" stroke-linecap="round" stroke-linejoin="round"/>
<path d="M165.738 18.9692C169.972 17.4697 174.26 16.0841 178.593 14.8125" stroke="#EC0000" stroke-width="10" stroke-linecap="round" stroke-linejoin="round"/>
</g>
<defs>
<filter id="filter0_d_137_833" x="0" y="0" width="495.516" height="483.359" filterUnits="userSpaceOnUse" color-interpolation-filters="sRGB">
<feFlood flood-opacity="0" result="BackgroundImageFix"/>
<feColorMatrix in="SourceAlpha" type="matrix" values="0 0 0 0 0 0 0 0 0 0 0 0 0 0 0 0 0 0 127 0" result="hardAlpha"/>
<feOffset dy="4"/>
<feGaussianBlur stdDeviation="2"/>
<feComposite in2="hardAlpha" operator="out"/>
<feColorMatrix type="matrix" values="0 0 0 0 0 0 0 0 0 0 0 0 0 0 0 0 0 0 0.25 0"/>
<feBlend mode="normal" in2="BackgroundImageFix" result="effect1_dropShadow_137_833"/>
<feBlend mode="normal" in="SourceGraphic" in2="effect1_dropShadow_137_833" result="shape"/>
</filter>
</defs>
</svg>
