<svg width="577" height="562" viewBox="0 0 577 562" fill="none" xmlns="http://www.w3.org/2000/svg">
<path d="M56.8591 439.509C24.1961 394.592 5 339.73 5 280.51C5 253.158 9.08963 226.745 16.7194 201.804" stroke="#EC0000" stroke-width="10" stroke-linecap="round" stroke-linejoin="round"/>
<path d="M227.003 549.602C190.052 541.7 155.813 526.775 125.834 506.324" stroke="#EC0000" stroke-width="10" stroke-linecap="round" stroke-linejoin="round"/>
<path d="M236.021 551.381C232.994 550.838 229.995 550.241 227.004 549.601" stroke="#EC0000" stroke-width="10" stroke-linecap="round" stroke-linejoin="round"/>
<path d="M288.005 556.02C270.251 556.02 252.874 554.424 236.029 551.381" stroke="#EC0000" stroke-width="10" stroke-linecap="round" stroke-linejoin="round"/>
<path d="M450.167 506.324C404.244 537.64 348.323 556.012 287.996 556.012" stroke="#EC0000" stroke-width="10" stroke-linecap="round" stroke-linejoin="round"/>
<path d="M571.001 280.51C571.001 373.94 523.232 456.513 450.168 506.324" stroke="#EC0000" stroke-width="10" stroke-linecap="round" stroke-linejoin="round"/>
<path d="M92.9824 80.8647C143.743 33.8515 212.411 5 288.006 5C334.109 5 377.635 15.7338 416.1 34.7723" stroke="#EC0000" stroke-width="10" stroke-linecap="round" stroke-linejoin="round"/>
<path d="M130.418 105.559C152.47 86.7134 178.124 71.7614 206.229 61.7993" stroke="#EC0000" stroke-width="10" stroke-linecap="round" stroke-linejoin="round"/>
<path d="M113.709 121.283C119.015 115.785 124.591 110.532 130.419 105.551" stroke="#EC0000" stroke-width="10" stroke-linecap="round" stroke-linejoin="round"/>
<path d="M107.504 127.974C109.531 125.703 111.594 123.475 113.71 121.283" stroke="#EC0000" stroke-width="10" stroke-linecap="round" stroke-linejoin="round"/>
<path d="M65.8867 194.419C75.9036 169.952 90.0552 147.537 107.513 127.981" stroke="#EC0000" stroke-width="10" stroke-linecap="round" stroke-linejoin="round"/>
<path d="M61.859 356.033C55.148 336.995 50.9143 316.842 49.5 295.936" stroke="#EC0000" stroke-width="10" stroke-linecap="round" stroke-linejoin="round"/>
<path d="M288.004 513.19C183.16 513.19 94.0798 447.463 61.8672 356.032" stroke="#EC0000" stroke-width="10" stroke-linecap="round" stroke-linejoin="round"/>
<path d="M364.195 59.8965C458.842 90.8615 527.015 177.934 527.015 280.51C527.015 325.76 513.746 367.994 490.785 403.73" stroke="#EC0000" stroke-width="10" stroke-linecap="round" stroke-linejoin="round"/>
<path d="M327.047 50.9165C339.802 52.9598 352.215 55.9765 364.196 59.9052" stroke="#EC0000" stroke-width="10" stroke-linecap="round" stroke-linejoin="round"/>
<path d="M305.309 48.4263C312.65 48.9349 319.902 49.768 327.045 50.9168" stroke="#EC0000" stroke-width="10" stroke-linecap="round" stroke-linejoin="round"/>
<path d="M288.006 47.8301C293.825 47.8301 299.599 48.0318 305.31 48.4264" stroke="#EC0000" stroke-width="10" stroke-linecap="round" stroke-linejoin="round"/>
<path d="M206.238 61.7993C210.472 60.2997 214.76 58.9142 219.093 57.6426" stroke="#EC0000" stroke-width="10" stroke-linecap="round" stroke-linejoin="round"/>
<path d="M288.023 91C325.154 91 359.862 101.102 389.409 118.641" stroke="#EC0000" stroke-width="10" stroke-linecap="round" stroke-linejoin="round"/>
<path d="M117.331 372.763C101.828 345.534 93 314.2 93 280.859C93 227.014 116.024 178.396 153.02 143.845" stroke="#EC0000" stroke-width="10" stroke-linecap="round" stroke-linejoin="round"/>
<path d="M479.065 319.226C466.103 380.726 422.585 431.387 364.637 455.512" stroke="#EC0000" stroke-width="10" stroke-linecap="round" stroke-linejoin="round"/>
<path d="M483.046 280.859C483.046 294.004 481.677 306.834 479.064 319.225" stroke="#EC0000" stroke-width="10" stroke-linecap="round" stroke-linejoin="round"/>
<path d="M443.709 166.496C447.312 171.135 450.699 175.941 453.861 180.904" stroke="#EC0000" stroke-width="10" stroke-linecap="round" stroke-linejoin="round"/>
<path d="M389.41 118.641C410.471 131.138 428.901 147.414 443.71 166.496" stroke="#EC0000" stroke-width="10" stroke-linecap="round" stroke-linejoin="round"/>
</svg>
