<svg width="585" height="570" viewBox="0 0 585 570" fill="none" xmlns="http://www.w3.org/2000/svg">
<g filter="url(#filter0_d_137_825)">
<path d="M60.8591 439.509C28.1961 394.592 9 339.73 9 280.51C9 253.158 13.0896 226.745 20.7194 201.804" stroke="#EC0000" stroke-width="10" stroke-linecap="round" stroke-linejoin="round"/>
<path d="M231.003 549.602C194.052 541.7 159.813 526.775 129.834 506.324" stroke="#EC0000" stroke-width="10" stroke-linecap="round" stroke-linejoin="round"/>
<path d="M240.021 551.381C236.994 550.838 233.995 550.241 231.004 549.601" stroke="#EC0000" stroke-width="10" stroke-linecap="round" stroke-linejoin="round"/>
<path d="M292.005 556.02C274.251 556.02 256.874 554.424 240.029 551.381" stroke="#EC0000" stroke-width="10" stroke-linecap="round" stroke-linejoin="round"/>
<path d="M454.167 506.324C408.244 537.64 352.323 556.012 291.996 556.012" stroke="#EC0000" stroke-width="10" stroke-linecap="round" stroke-linejoin="round"/>
<path d="M575.001 280.51C575.001 373.94 527.232 456.513 454.168 506.324" stroke="#EC0000" stroke-width="10" stroke-linecap="round" stroke-linejoin="round"/>
<path d="M96.9824 80.8647C147.743 33.8515 216.411 5 292.006 5C338.109 5 381.635 15.7338 420.1 34.7723" stroke="#EC0000" stroke-width="10" stroke-linecap="round" stroke-linejoin="round"/>
</g>
<defs>
<filter id="filter0_d_137_825" x="0" y="0" width="584.002" height="569.02" filterUnits="userSpaceOnUse" color-interpolation-filters="sRGB">
<feFlood flood-opacity="0" result="BackgroundImageFix"/>
<feColorMatrix in="SourceAlpha" type="matrix" values="0 0 0 0 0 0 0 0 0 0 0 0 0 0 0 0 0 0 127 0" result="hardAlpha"/>
<feOffset dy="4"/>
<feGaussianBlur stdDeviation="2"/>
<feComposite in2="hardAlpha" operator="out"/>
<feColorMatrix type="matrix" values="0 0 0 0 0 0 0 0 0 0 0 0 0 0 0 0 0 0 0.25 0"/>
<feBlend mode="normal" in2="BackgroundImageFix" result="effect1_dropShadow_137_825"/>
<feBlend mode="normal" in="SourceGraphic" in2="effect1_dropShadow_137_825" result="shape"/>
</filter>
</defs>
</svg>
