<svg width="85" height="71" viewBox="0 0 85 71" fill="none" xmlns="http://www.w3.org/2000/svg">
<path d="M43.9103 52.8192C53.5258 52.8192 61.3208 45.0242 61.3208 35.4089C61.3208 25.7933 53.5257 17.9985 43.9103 17.9985C34.295 17.9985 26.5 25.7933 26.5 35.4089C26.5 45.0242 34.2948 52.8192 43.9103 52.8192Z" fill="#EC0000"/>
<path d="M48.3832 33.9096C48.3533 33.2013 48.1552 32.4989 47.7884 31.8654L44.5563 26.2665C44.3102 25.8393 44.1397 25.3826 44.0449 24.9126L43.9101 25.146C43.1102 26.5316 43.1102 28.2387 43.9101 29.6244L46.496 34.1031C47.2959 35.4881 47.2959 37.1956 46.496 38.5813L46.361 38.8148C46.2659 38.3463 46.0956 37.8885 45.8498 37.4606L43.4823 33.36L41.9704 30.7414C41.7242 30.3141 41.5534 29.8579 41.4585 29.3874L41.3242 29.6209C40.5268 31.0023 40.5242 32.7031 41.316 34.0856L43.9096 38.578C44.7095 39.9637 44.7095 41.6707 43.9096 43.0566L43.7748 43.2901C43.68 42.8215 43.5097 42.3637 43.2634 41.936L40.0316 36.3372C39.5985 35.5864 39.4007 34.7409 39.4363 33.9042C35.9741 34.8132 33.5859 36.7317 33.5859 38.9547C33.5859 42.0462 38.2075 44.5536 43.9078 44.5536C49.6087 44.5536 54.2302 42.0474 54.2302 38.9547C54.2302 36.7317 51.8425 34.8117 48.3813 33.9084H48.3835V33.9096H48.3832Z" fill="white"/>
<path d="M75.3747 9.77926C75.9087 9.87264 76.3765 10.1671 76.6847 10.6006C79.9256 15.2259 82.1899 20.366 83.417 25.8782C84.6438 31.3902 84.7724 37.0053 83.7995 42.5682C82.8265 48.1311 80.7995 53.3693 77.7754 58.1383C74.7505 62.9072 70.8759 66.9735 66.2593 70.2232C65.8116 70.5378 65.2683 70.6593 64.7293 70.565C64.1908 70.4709 63.7203 70.1723 63.406 69.7248C62.7577 68.8 62.9814 67.5204 63.9048 66.8717C64.8685 66.1945 65.8253 65.4476 66.8312 64.587C73.6249 58.752 78.2154 50.6815 79.7577 41.8613C81.3002 33.0408 79.7212 23.8916 75.3084 16.0956C74.644 14.9307 73.9978 13.9039 73.338 12.9646C72.6994 12.0417 72.927 10.7656 73.8438 10.1206C74.2924 9.80636 74.8352 9.68484 75.3747 9.77926Z" fill="#EC0000"/>
<path d="M19.715 0.0311667C20.254 0.125441 20.7239 0.423752 21.0378 0.870549C21.6863 1.79527 21.4624 3.07549 20.5391 3.72528C19.578 4.40069 18.6213 5.14714 17.613 6.00946C10.8199 11.8431 6.22876 19.9132 4.68627 28.7334C3.14407 37.553 4.7238 46.7028 9.13576 54.501C9.79792 55.663 10.4437 56.6891 11.1108 57.6398C11.4253 58.0867 11.5461 58.6302 11.452 59.1693C11.3577 59.7082 11.0595 60.1779 10.6118 60.4924C10.1641 60.807 9.62069 60.9285 9.082 60.8344C8.54316 60.7401 8.07313 60.4416 7.75889 59.9942C4.51857 55.3696 2.25391 50.23 1.0273 44.718C-0.199306 39.2057 -0.328281 33.5901 0.644693 28.027C1.61752 22.4644 3.64449 17.2263 6.66885 12.4579C9.69337 7.68941 13.5681 3.62282 18.1837 0.372669C18.6318 0.0581245 19.1756 -0.0631074 19.715 0.0311667Z" fill="#EC0000"/>
<path d="M45.1063 6.44247C45.5261 6.10395 46.0748 5.9425 46.6081 5.99954C54.3614 6.84816 61.3257 10.6586 66.2194 16.7295C71.1128 22.8003 73.3581 30.4155 72.5409 38.1689C72.4823 38.7134 72.2155 39.2022 71.7896 39.5456C71.3636 39.8891 70.8296 40.0457 70.2854 39.9875C69.1626 39.8661 68.3473 38.8549 68.4685 37.7237C68.5999 36.4181 68.6291 35.0949 68.5563 33.8025C68.3062 28.4654 66.4011 23.4456 63.0481 19.2858C59.6948 15.126 55.1942 12.1985 50.0441 10.8245C48.7824 10.475 47.4828 10.2231 46.1734 10.0749C45.6374 10.0173 45.1358 9.7437 44.7974 9.32371C44.4589 8.90372 44.2973 8.3552 44.3554 7.8195L44.3604 7.7699C44.4291 7.25221 44.6988 6.77087 45.1063 6.44247Z" fill="#EC0000"/>
<path d="M14.5799 31.0496C15.0063 30.7059 15.5402 30.5488 16.0831 30.6071C17.2063 30.7282 18.0223 31.7405 17.902 32.8635L17.843 33.4185L17.8518 33.4294C17.7638 34.5555 17.7508 35.6869 17.8126 36.7927C18.0633 42.1296 19.9683 47.1493 23.3212 51.3092C26.6745 55.4693 31.175 58.3964 36.3251 59.7709C37.5841 60.1191 38.8834 60.3714 40.1968 60.5214C41.3188 60.642 42.1339 61.6534 42.014 62.776C41.9554 63.3201 41.689 63.8092 41.263 64.1525C40.837 64.4958 40.3027 64.6526 39.7612 64.5944C32.0099 63.7466 25.0455 59.9361 20.151 53.8639C15.2568 47.7921 13.0115 40.1777 13.8285 32.4258C13.8869 31.882 14.154 31.3929 14.5799 31.0496Z" fill="#EC0000"/>
</svg>
