<svg width="100" height="100" viewBox="0 0 100 100" fill="none" xmlns="http://www.w3.org/2000/svg">
<mask id="path-1-inside-1_33_1002" fill="white">
<path d="M49.7928 84.2393V95.5592C49.7928 96.9146 48.7009 98.0064 47.3455 98.0064H34.093C33.2145 98.0064 32.4113 97.5421 31.9721 96.7891L28.6088 90.9785C25.0948 84.8417 15.5068 72.0661 15.5068 59.8426C15.5068 39.1355 31.3321 25.8077 50.0061 25.9206C57.674 25.9708 64.0242 27.9662 70.0104 31.3672C70.7634 31.7939 71.6795 31.7939 72.4325 31.3672L73.2859 30.8778C78.4689 27.9035 84.1037 29.1208 89.2868 32.1077L82.3217 44.168L86.0615 50.6311C88.0569 54.0948 91.7591 56.2283 95.7499 56.2283H96.252L96.5029 56.6675C98.4983 60.1312 98.4983 64.3982 96.5029 67.8494L96.252 68.2886C94.2942 71.677 90.8305 73.8858 86.9902 74.2623C86.2121 74.3376 85.5219 74.7894 85.1328 75.4671L80.6149 82.7961C80.4016 83.1726 80.2886 83.5868 80.2886 84.026V95.5592C80.2886 96.9146 79.1968 98.0064 77.8414 98.0064H70.1861C67.6008 98.0064 66.5843 97.3162 65.8188 95.4462L64.5638 92.723C63.6854 91.2044 62.079 90.2757 60.322 90.2757H49.981"/>
</mask>
<path d="M49.7928 84.2393V95.5592C49.7928 96.9146 48.7009 98.0064 47.3455 98.0064H34.093C33.2145 98.0064 32.4113 97.5421 31.9721 96.7891L28.6088 90.9785C25.0948 84.8417 15.5068 72.0661 15.5068 59.8426C15.5068 39.1355 31.3321 25.8077 50.0061 25.9206C57.674 25.9708 64.0242 27.9662 70.0104 31.3672C70.7634 31.7939 71.6795 31.7939 72.4325 31.3672L73.2859 30.8778C78.4689 27.9035 84.1037 29.1208 89.2868 32.1077L82.3217 44.168L86.0615 50.6311C88.0569 54.0948 91.7591 56.2283 95.7499 56.2283H96.252L96.5029 56.6675C98.4983 60.1312 98.4983 64.3982 96.5029 67.8494L96.252 68.2886C94.2942 71.677 90.8305 73.8858 86.9902 74.2623C86.2121 74.3376 85.5219 74.7894 85.1328 75.4671L80.6149 82.7961C80.4016 83.1726 80.2886 83.5868 80.2886 84.026V95.5592C80.2886 96.9146 79.1968 98.0064 77.8414 98.0064H70.1861C67.6008 98.0064 66.5843 97.3162 65.8188 95.4462L64.5638 92.723C63.6854 91.2044 62.079 90.2757 60.322 90.2757H49.981" fill="white"/>
<path d="M31.9721 96.7891L31.1066 97.29L31.1083 97.2929L31.9721 96.7891ZM28.6088 90.9785L27.741 91.4754L27.7433 91.4795L28.6088 90.9785ZM50.0061 25.9206L50.0126 24.9207L50.0121 24.9207L50.0061 25.9206ZM70.0104 31.3672L69.5164 32.2367L69.5174 32.2372L70.0104 31.3672ZM72.4325 31.3672L72.9255 32.2373L72.93 32.2347L72.4325 31.3672ZM73.2859 30.8778L73.7834 31.7452L73.7836 31.7451L73.2859 30.8778ZM89.2868 32.1077L90.1527 32.6078L90.6533 31.741L89.7861 31.2412L89.2868 32.1077ZM82.3217 44.168L81.4557 43.6679L81.1666 44.1685L81.4561 44.6688L82.3217 44.168ZM86.0615 50.6311L86.928 50.1319L86.927 50.1302L86.0615 50.6311ZM96.252 56.2283L97.1202 55.7322L96.8323 55.2283H96.252V56.2283ZM96.5029 56.6675L95.6346 57.1636L95.6364 57.1667L96.5029 56.6675ZM96.5029 67.8494L95.6372 67.3488L95.6346 67.3533L96.5029 67.8494ZM96.252 68.2886L97.1178 68.7888L97.1202 68.7846L96.252 68.2886ZM86.9902 74.2623L87.0866 75.2576L87.0878 75.2575L86.9902 74.2623ZM85.1328 75.4671L85.9841 75.9918L85.9923 75.9785L86.0001 75.9649L85.1328 75.4671ZM80.6149 82.7961L79.7637 82.2713L79.754 82.287L79.7449 82.3031L80.6149 82.7961ZM65.8188 95.4462L66.7443 95.0674L66.7361 95.0473L66.727 95.0277L65.8188 95.4462ZM64.5638 92.723L65.472 92.3044L65.4526 92.2623L65.4294 92.2222L64.5638 92.723ZM48.7928 84.2393V95.5592H50.7928V84.2393H48.7928ZM48.7928 95.5592C48.7928 96.3623 48.1487 97.0064 47.3455 97.0064V99.0064C49.2532 99.0064 50.7928 97.4669 50.7928 95.5592H48.7928ZM47.3455 97.0064H34.093V99.0064H47.3455V97.0064ZM34.093 97.0064C33.571 97.0064 33.0963 96.7317 32.8359 96.2852L31.1083 97.2929C31.7264 98.3524 32.858 99.0064 34.093 99.0064V97.0064ZM32.8376 96.2881L29.4742 90.4776L27.7433 91.4795L31.1066 97.29L32.8376 96.2881ZM29.4766 90.4816C27.6425 87.2786 24.468 82.7292 21.6285 77.234C18.8167 71.7923 16.5068 65.7143 16.5068 59.8426H14.5068C14.5068 66.1944 16.991 72.6159 19.8517 78.1521C22.6847 83.6348 26.0611 88.5416 27.741 91.4754L29.4766 90.4816ZM16.5068 59.8426C16.5068 39.7433 31.826 26.8107 50 26.9206L50.0121 24.9207C30.8381 24.8047 14.5068 38.5278 14.5068 59.8426H16.5068ZM49.9995 26.9206C57.4782 26.9696 63.6621 28.9107 69.5164 32.2367L70.5044 30.4977C64.3862 27.0218 57.8698 24.9721 50.0126 24.9207L49.9995 26.9206ZM69.5174 32.2372C70.5762 32.8372 71.8667 32.8372 72.9255 32.2372L71.9395 30.4972C71.4923 30.7506 70.9506 30.7506 70.5034 30.4972L69.5174 32.2372ZM72.93 32.2347L73.7834 31.7452L72.7883 30.0103L71.9349 30.4998L72.93 32.2347ZM73.7836 31.7451C78.5235 29.0251 83.7499 30.0711 88.7875 32.9741L89.7861 31.2412C84.4576 28.1706 78.4142 26.7819 72.7881 30.0104L73.7836 31.7451ZM88.4208 31.6075L81.4557 43.6679L83.1876 44.6681L90.1527 32.6078L88.4208 31.6075ZM81.4561 44.6688L85.1959 51.1319L86.927 50.1302L83.1872 43.6671L81.4561 44.6688ZM85.195 51.1302C87.3693 54.9045 91.4023 57.2283 95.7499 57.2283V55.2283C92.116 55.2283 88.7445 53.2851 86.928 50.1319L85.195 51.1302ZM95.7499 57.2283H96.252V55.2283H95.7499V57.2283ZM95.3837 56.7243L95.6346 57.1636L97.3712 56.1714L97.1202 55.7322L95.3837 56.7243ZM95.6364 57.1667C97.4541 60.322 97.4532 64.2079 95.6372 67.3488L97.3686 68.3499C99.5434 64.5885 99.5425 59.9405 97.3694 56.1683L95.6364 57.1667ZM95.6346 67.3533L95.3837 67.7925L97.1202 68.7846L97.3712 68.3454L95.6346 67.3533ZM95.3861 67.7883C93.5903 70.8964 90.4133 72.9219 86.8927 73.267L87.0878 75.2575C91.2477 74.8497 94.9981 72.4576 97.1178 68.7888L95.3861 67.7883ZM86.8939 73.2669C85.7883 73.3739 84.8132 74.0152 84.2656 74.9692L86.0001 75.9649C86.2305 75.5636 86.636 75.3012 87.0866 75.2576L86.8939 73.2669ZM84.2816 74.9423L79.7637 82.2713L81.4662 83.3208L85.9841 75.9918L84.2816 74.9423ZM79.7449 82.3031C79.4486 82.8259 79.2886 83.4094 79.2886 84.026H81.2886C81.2886 83.7641 81.3546 83.5192 81.485 83.2891L79.7449 82.3031ZM79.2886 84.026V95.5592H81.2886V84.026H79.2886ZM79.2886 95.5592C79.2886 96.3623 78.6445 97.0064 77.8414 97.0064V99.0064C79.749 99.0064 81.2886 97.4669 81.2886 95.5592H79.2886ZM77.8414 97.0064H70.1861V99.0064H77.8414V97.0064ZM70.1861 97.0064C68.9586 97.0064 68.2774 96.8374 67.8369 96.5714C67.4224 96.3212 67.0863 95.9029 66.7443 95.0674L64.8934 95.8251C65.3168 96.8595 65.8718 97.7213 66.8032 98.2836C67.7087 98.8303 68.8284 99.0064 70.1861 99.0064V97.0064ZM66.727 95.0277L65.472 92.3044L63.6556 93.1415L64.9106 95.8648L66.727 95.0277ZM65.4294 92.2222C64.3725 90.3952 62.4365 89.2757 60.322 89.2757V91.2757C61.7215 91.2757 62.9982 92.0137 63.6982 93.2237L65.4294 92.2222ZM60.322 89.2757H49.981V91.2757H60.322V89.2757Z" fill="#EC0000" mask="url(#path-1-inside-1_33_1002)"/>
<path d="M49.7928 84.2393V95.5592C49.7928 96.9146 48.7009 98.0064 47.3455 98.0064H34.093C33.2145 98.0064 32.4113 97.5421 31.9721 96.7891L28.6088 90.9785C25.0948 84.8417 15.5068 72.0661 15.5068 59.8426C15.5068 39.1355 31.3321 25.8077 50.0061 25.9206C57.674 25.9708 64.0242 27.9662 70.0104 31.3672C70.7634 31.7939 71.6795 31.7939 72.4325 31.3672L73.2859 30.8778C78.4689 27.9035 84.1037 29.1208 89.2868 32.1077L82.3217 44.168L86.0615 50.6311C88.0569 54.0948 91.7591 56.2283 95.7499 56.2283H96.252L96.5029 56.6675C98.4983 60.1312 98.4983 64.3982 96.5029 67.8494L96.252 68.2886C94.2942 71.677 90.8305 73.8858 86.9902 74.2623C86.2121 74.3376 85.5219 74.7894 85.1328 75.4671L80.6149 82.7961C80.4016 83.1726 80.2886 83.5868 80.2886 84.026V95.5592C80.2886 96.9146 79.1968 98.0064 77.8414 98.0064H70.1861C67.6009 98.0064 66.5843 97.3162 65.8188 95.4462L64.5638 92.723C63.6854 91.2044 62.079 90.2757 60.322 90.2757H49.981" stroke="#EC0000" stroke-width="2.7" stroke-linecap="round" stroke-linejoin="round"/>
<mask id="path-4-inside-2_33_1002" fill="white">
<path d="M37.5332 36.5359C37.5332 36.5359 43.7955 33.3984 50.0955 33.3984C56.3955 33.3984 62.683 36.5359 62.683 36.5359"/>
</mask>
<path d="M37.5332 36.5359C37.5332 36.5359 43.7955 33.3984 50.0955 33.3984C56.3955 33.3984 62.683 36.5359 62.683 36.5359" fill="white"/>
<path d="M37.5332 36.5359C37.9811 37.4299 37.981 37.43 37.9809 37.4301C37.9808 37.4301 37.9807 37.4301 37.9807 37.4302C37.9807 37.4302 37.9807 37.4302 37.9809 37.4301C37.9811 37.4299 37.9818 37.4296 37.9829 37.4291C37.9849 37.4281 37.9885 37.4263 37.9935 37.4238C38.0036 37.4188 38.0196 37.411 38.0413 37.4005C38.0846 37.3795 38.1507 37.3478 38.238 37.307C38.4127 37.2253 38.6722 37.1072 39.0044 36.9646C39.6693 36.6794 40.6226 36.2977 41.7681 35.9158C44.0708 35.1483 47.0965 34.3984 50.0955 34.3984V32.3984C46.7946 32.3984 43.5391 33.2173 41.1356 34.0185C39.928 34.421 38.922 34.8237 38.2158 35.1267C37.8625 35.2783 37.5835 35.4052 37.3912 35.4951C37.2949 35.5401 37.2203 35.5758 37.1689 35.6008C37.1431 35.6133 37.1232 35.6231 37.1092 35.63C37.1022 35.6334 37.0967 35.6361 37.0927 35.6381C37.0907 35.6391 37.0891 35.6399 37.0878 35.6405C37.0872 35.6408 37.0867 35.6411 37.0863 35.6413C37.0861 35.6414 37.0858 35.6415 37.0857 35.6416C37.0855 35.6417 37.0853 35.6418 37.5332 36.5359ZM50.0955 34.3984C53.0948 34.3984 56.1269 35.1484 58.4363 35.9161C59.585 36.298 60.5416 36.6798 61.2089 36.9651C61.5424 37.1077 61.8029 37.2259 61.9783 37.3076C62.066 37.3484 62.1324 37.3801 62.176 37.4012C62.1977 37.4117 62.2138 37.4195 62.2239 37.4245C62.229 37.427 62.2326 37.4288 62.2347 37.4298C62.2358 37.4303 62.2364 37.4306 62.2367 37.4308C62.2369 37.4309 62.2369 37.4309 62.2369 37.4309C62.2369 37.4309 62.2367 37.4308 62.2367 37.4308C62.2366 37.4307 62.2365 37.4307 62.683 36.5359C63.1295 35.6411 63.1293 35.641 63.129 35.6409C63.1289 35.6408 63.1287 35.6407 63.1285 35.6406C63.128 35.6404 63.1275 35.6401 63.1269 35.6398C63.1257 35.6392 63.124 35.6384 63.122 35.6374C63.118 35.6354 63.1125 35.6327 63.1055 35.6293C63.0915 35.6224 63.0715 35.6126 63.0456 35.6001C62.994 35.5752 62.9192 35.5395 62.8226 35.4945C62.6296 35.4047 62.3497 35.2777 61.9953 35.1262C61.2868 34.8233 60.2778 34.4207 59.0672 34.0182C56.6578 33.2172 53.3962 32.3984 50.0955 32.3984V34.3984Z" fill="#EC0000" mask="url(#path-4-inside-2_33_1002)"/>
<path d="M37.5332 36.5359C37.5332 36.5359 43.7955 33.3984 50.0955 33.3984C56.3955 33.3984 62.683 36.5359 62.683 36.5359" stroke="#EC0000" stroke-width="2.7" stroke-linecap="round" stroke-linejoin="round"/>
<path d="M50.1203 2.5C57.7003 2.5 63.8391 8.63885 63.8391 16.2188C63.8391 23.7986 57.688 29.9377 50.1203 29.9377C42.5525 29.9377 36.4014 23.7986 36.4014 16.2188C36.4014 8.63885 42.5403 2.5 50.1203 2.5Z" fill="white" stroke="#EC0000"/>
<path d="M50.1203 2C57.9764 2 64.3391 8.36271 64.3391 16.2188C64.3391 24.075 57.9638 30.4377 50.1203 30.4377C42.2767 30.4377 35.9014 24.075 35.9014 16.2188C35.9014 8.36271 42.2641 2 50.1203 2Z" stroke="#EC0000" stroke-width="2.7" stroke-linecap="round" stroke-linejoin="round"/>
<path d="M70.2002 53.7186C68.1546 53.7186 66.4834 52.0474 66.4834 50.0019C66.4834 47.9563 68.1546 46.2852 70.2002 46.2852C72.2457 46.2852 73.9169 47.9563 73.9169 50.0019C73.9169 52.0474 72.2457 53.7186 70.2002 53.7186Z" fill="white" stroke="#EC0000"/>
<path d="M73.2225 49.991C73.2225 48.3219 71.8692 46.9685 70.2 46.9685C68.5309 46.9685 67.1775 48.3219 67.1775 49.991C67.1775 51.6602 68.5309 53.0135 70.2 53.0135C71.8692 53.0135 73.2225 51.6602 73.2225 49.991ZM64.7891 49.991C64.7891 47.0042 67.2132 44.5801 70.2 44.5801C73.1868 44.5801 75.6109 47.0042 75.6109 49.991C75.6109 52.9778 73.1868 55.4019 70.2 55.4019C67.2132 55.4019 64.7891 52.9778 64.7891 49.991Z" fill="#EC0000" stroke="#EC0000"/>
<path d="M4.12539 53.4668L9.89824 63.7576C11.0905 65.9162 10.5133 68.4512 8.48019 69.6936C6.62283 70.8356 4.27601 70.4592 2.89554 68.7775C2.83279 68.7022 2.77002 68.6269 2.71982 68.5391C0.849908 65.9413 2.8579 62.3144 6.04554 62.3144H15.5456" stroke="#EC0000" stroke-width="2.7" stroke-linecap="round" stroke-linejoin="round"/>
</svg>
