<svg width="115" height="95" viewBox="0 0 115 95" fill="none" xmlns="http://www.w3.org/2000/svg">
<path d="M21.0303 2.0007L2.0293 28.8496L57.9635 55.1738L76.9645 28.3249L21.0303 2.0007Z" stroke="#EC0000" stroke-width="2.7" stroke-linecap="round" stroke-linejoin="round"/>
<path d="M63.6612 71.3301L8.63186 45.4317L27.0552 19.3991L82.0846 45.2975L63.6612 71.3301Z" fill="white" stroke="#EC0000"/>
<path d="M26.8916 18.778L7.89062 45.627L63.8248 71.9512L82.8258 45.1023L26.8916 18.778Z" stroke="#EC0000" stroke-width="2.7" stroke-linecap="round" stroke-linejoin="round"/>
<mask id="path-4-inside-1_33_987" fill="white">
<path d="M87.1485 69.0347L52.2845 75.2298C48.7121 75.7292 45.2126 74.0169 44.0752 71.2107C42.3838 67.0727 44.8626 62.578 49.7765 60.8657L74.7689 51.9476C82.6574 49.1295 91.6395 49.1295 99.5426 51.9476L113.57 56.9536V83.3988H102.24C99.9071 83.3988 97.5741 83.6842 95.3286 84.2311L62.6518 92.2693C59.1232 93.2681 55.2883 93.2444 51.7742 92.1861L3.7287 74.7898C2.2414 74.2072 1.62899 72.7327 2.35805 71.5317L3.07254 69.9859C4.51609 67.6315 7.66566 66.3236 10.8444 66.7635L43.5357 71.4247"/>
</mask>
<path d="M87.1485 69.0347L52.2845 75.2298C48.7121 75.7292 45.2126 74.0169 44.0752 71.2107C42.3838 67.0727 44.8626 62.578 49.7765 60.8657L74.7689 51.9476C82.6574 49.1295 91.6395 49.1295 99.5426 51.9476L113.57 56.9536V83.3988H102.24C99.9071 83.3988 97.5741 83.6842 95.3286 84.2311L62.6518 92.2693C59.1232 93.2681 55.2883 93.2444 51.7742 92.1861L3.7287 74.7898C2.2414 74.2072 1.62899 72.7327 2.35805 71.5317L3.07254 69.9859C4.51609 67.6315 7.66566 66.3236 10.8444 66.7635L43.5357 71.4247" fill="white"/>
<path d="M52.2845 75.2298L52.423 76.2202L52.4413 76.2176L52.4595 76.2144L52.2845 75.2298ZM44.0752 71.2107L45.002 70.8351L45.0009 70.8323L44.0752 71.2107ZM49.7765 60.8657L50.1056 61.81L50.1126 61.8075L49.7765 60.8657ZM74.7689 51.9476L75.105 52.8894L75.1054 52.8893L74.7689 51.9476ZM99.5426 51.9476L99.8787 51.0058L99.8785 51.0057L99.5426 51.9476ZM113.57 56.9536H114.57V56.2487L113.906 56.0118L113.57 56.9536ZM113.57 83.3988V84.3988H114.57V83.3988H113.57ZM95.3286 84.2311L95.0919 83.2595L95.0897 83.2601L95.3286 84.2311ZM62.6518 92.2693L62.413 91.2982L62.3962 91.3023L62.3795 91.3071L62.6518 92.2693ZM51.7742 92.1861L51.4337 93.1264L51.4595 93.1357L51.4858 93.1436L51.7742 92.1861ZM3.7287 74.7898L3.36394 75.7209L3.37603 75.7257L3.38825 75.7301L3.7287 74.7898ZM2.35805 71.5317L3.21287 72.0506L3.24212 72.0024L3.26578 71.9513L2.35805 71.5317ZM3.07254 69.9859L2.22002 69.4632L2.1894 69.5132L2.16481 69.5663L3.07254 69.9859ZM10.8444 66.7635L10.9855 65.7735L10.9815 65.773L10.8444 66.7635ZM86.9735 68.0501L52.1096 74.2452L52.4595 76.2144L87.3234 70.0192L86.9735 68.0501ZM52.1461 74.2394C48.9085 74.692 45.9258 73.1143 45.002 70.8351L43.1485 71.5863C44.4994 74.9195 48.5157 76.7664 52.423 76.2202L52.1461 74.2394ZM45.0009 70.8323C43.5827 67.3627 45.5809 63.3866 50.1056 61.81L49.4475 59.9214C44.1443 61.7693 41.185 66.7827 43.1496 71.5891L45.0009 70.8323ZM50.1126 61.8075L75.105 52.8894L74.4329 51.0057L49.4405 59.9238L50.1126 61.8075ZM75.1054 52.8893C82.7761 50.149 91.5207 50.1487 99.2067 52.8895L99.8785 51.0057C91.7584 48.1102 82.5388 48.11 74.4325 51.0059L75.1054 52.8893ZM99.2065 52.8894L113.234 57.8954L113.906 56.0118L99.8787 51.0058L99.2065 52.8894ZM112.57 56.9536V83.3988H114.57V56.9536H112.57ZM113.57 82.3988H102.24V84.3988H113.57V82.3988ZM102.24 82.3988C99.8263 82.3988 97.4138 82.694 95.0919 83.2595L95.5653 85.2027C97.7344 84.6743 99.988 84.3988 102.24 84.3988V82.3988ZM95.0897 83.2601L62.413 91.2982L62.8907 93.2403L95.5675 85.2022L95.0897 83.2601ZM62.3795 91.3071C59.0329 92.2543 55.3926 92.2314 52.0625 91.2286L51.4858 93.1436C55.184 94.2573 59.2134 94.2818 62.9242 93.2315L62.3795 91.3071ZM52.1146 91.2458L4.06915 73.8496L3.38825 75.7301L51.4337 93.1264L52.1146 91.2458ZM4.09346 73.8587C3.04353 73.4474 2.87981 72.5993 3.21287 72.0506L1.50323 71.0128C0.378157 72.8661 1.43927 74.9669 3.36394 75.7209L4.09346 73.8587ZM3.26578 71.9513L3.98026 70.4055L2.16481 69.5663L1.45033 71.1121L3.26578 71.9513ZM3.92505 70.5086C5.12214 68.5562 7.84288 67.3576 10.7073 67.7541L10.9815 65.773C7.48844 65.2895 3.91004 66.7068 2.22002 69.4632L3.92505 70.5086ZM10.7032 67.7535L43.3946 72.4147L43.6769 70.4347L10.9855 65.7736L10.7032 67.7535Z" fill="#EC0000" mask="url(#path-4-inside-1_33_987)"/>
<path d="M87.1485 69.0347L52.2845 75.2298C48.7121 75.7292 45.2126 74.0169 44.0752 71.2107C42.3838 67.0727 44.8626 62.578 49.7765 60.8657L74.7689 51.9476C82.6574 49.1295 91.6395 49.1295 99.5426 51.9476L113.57 56.9536V83.3988H102.24C99.9071 83.3988 97.5741 83.6842 95.3286 84.2311L62.6518 92.2693C59.1232 93.2681 55.2883 93.2444 51.7742 92.1861L3.7287 74.7898C2.2414 74.2072 1.62899 72.7327 2.35805 71.5317L3.07254 69.9859C4.51609 67.6315 7.66566 66.3236 10.8444 66.7635L43.5357 71.4247" stroke="#EC0000" stroke-width="2.7" stroke-linecap="round" stroke-linejoin="round"/>
<mask id="path-7-inside-2_33_987" fill="white">
<path d="M52.2402 45.3841C52.2402 48.4876 49.1489 51.0085 45.3432 51.0085C41.5375 51.0085 38.4316 48.4876 38.4316 45.3841C38.4316 42.2806 41.5229 39.7598 45.3432 39.7598C49.1635 39.7598 52.2402 42.2806 52.2402 45.3841Z"/>
</mask>
<path d="M52.2402 45.3841C52.2402 48.4876 49.1489 51.0085 45.3432 51.0085C41.5375 51.0085 38.4316 48.4876 38.4316 45.3841C38.4316 42.2806 41.5229 39.7598 45.3432 39.7598C49.1635 39.7598 52.2402 42.2806 52.2402 45.3841Z" fill="white"/>
<path d="M51.2402 45.3841C51.2402 47.7543 48.7969 50.0085 45.3432 50.0085V52.0085C49.5009 52.0085 53.2402 49.2209 53.2402 45.3841H51.2402ZM45.3432 50.0085C41.8865 50.0085 39.4316 47.7519 39.4316 45.3841H37.4316C37.4316 49.2233 41.1884 52.0085 45.3432 52.0085V50.0085ZM39.4316 45.3841C39.4316 43.0151 41.8734 40.7598 45.3432 40.7598V38.7598C41.1724 38.7598 37.4316 41.5461 37.4316 45.3841H39.4316ZM45.3432 40.7598C48.8101 40.7598 51.2402 43.0127 51.2402 45.3841H53.2402C53.2402 41.5485 49.5169 38.7598 45.3432 38.7598V40.7598Z" fill="#EC0000" mask="url(#path-7-inside-2_33_987)"/>
<path d="M52.2402 45.3841C52.2402 48.4876 49.1489 51.0085 45.3432 51.0085C41.5375 51.0085 38.4316 48.4876 38.4316 45.3841C38.4316 42.2806 41.5229 39.7598 45.3432 39.7598C49.1635 39.7598 52.2402 42.2806 52.2402 45.3841V45.3841Z" stroke="#EC0000" stroke-width="2.7" stroke-linecap="round" stroke-linejoin="round"/>
<path d="M21.0303 2.0007L2.0293 28.8496L57.9635 55.1738L76.9645 28.3249L21.0303 2.0007Z" stroke="#EC0000" stroke-width="2.7" stroke-linecap="round" stroke-linejoin="round"/>
<path d="M63.6612 71.3301L8.63186 45.4317L27.0552 19.3991L82.0846 45.2975L63.6612 71.3301Z" fill="white" stroke="#EC0000"/>
<path d="M26.8916 18.778L7.89062 45.627L63.8248 71.9512L82.8258 45.1023L26.8916 18.778Z" stroke="#EC0000" stroke-width="2.7" stroke-linecap="round" stroke-linejoin="round"/>
<mask id="path-13-inside-3_33_987" fill="white">
<path d="M87.1478 69.0347L52.2693 75.2298C48.6823 75.7292 45.1973 74.0169 44.0454 71.2107C42.354 67.0727 44.8328 62.578 49.7467 60.8657L74.7537 51.9476C82.6568 49.1295 91.6389 49.1295 99.5274 51.9476L113.555 56.9536V83.3988H102.225C99.8919 83.3988 97.5589 83.6842 95.3134 84.2311L62.622 92.2693C59.0933 93.2681 55.2439 93.2444 51.7444 92.1861L3.68429 74.7898C2.197 74.2072 1.57 72.7327 2.31365 71.5317L3.02814 69.9859C4.47169 67.6315 7.62125 66.3236 10.8 66.7635L43.5059 71.4247"/>
</mask>
<path d="M87.1478 69.0347L52.2693 75.2298C48.6823 75.7292 45.1973 74.0169 44.0454 71.2107C42.354 67.0727 44.8328 62.578 49.7467 60.8657L74.7537 51.9476C82.6568 49.1295 91.6389 49.1295 99.5274 51.9476L113.555 56.9536V83.3988H102.225C99.8919 83.3988 97.5589 83.6842 95.3134 84.2311L62.622 92.2693C59.0933 93.2681 55.2439 93.2444 51.7444 92.1861L3.68429 74.7898C2.197 74.2072 1.57 72.7327 2.31365 71.5317L3.02814 69.9859C4.47169 67.6315 7.62125 66.3236 10.8 66.7635L43.5059 71.4247" fill="white"/>
<path d="M52.2693 75.2298L52.4072 76.2202L52.4257 76.2177L52.4442 76.2144L52.2693 75.2298ZM44.0454 71.2107L43.1198 71.5891L43.1203 71.5904L44.0454 71.2107ZM49.7467 60.8657L50.0758 61.81L50.0826 61.8076L49.7467 60.8657ZM74.7537 51.9476L74.4178 51.0057L74.4178 51.0057L74.7537 51.9476ZM99.5274 51.9476L99.1909 52.8893L99.1912 52.8894L99.5274 51.9476ZM113.555 56.9536H114.555V56.2487L113.891 56.0118L113.555 56.9536ZM113.555 83.3988V84.3988H114.555V83.3988H113.555ZM95.3134 84.2311L95.0767 83.2595L95.0746 83.2601L95.3134 84.2311ZM62.622 92.2693L62.3833 91.2982L62.3664 91.3023L62.3497 91.3071L62.622 92.2693ZM51.7444 92.1861L51.404 93.1264L51.4292 93.1355L51.4549 93.1433L51.7444 92.1861ZM3.68429 74.7898L3.31954 75.7209L3.33168 75.7257L3.34394 75.7301L3.68429 74.7898ZM2.31365 71.5317L3.16386 72.0581L3.19587 72.0065L3.22138 71.9513L2.31365 71.5317ZM3.02814 69.9859L2.17562 69.4632L2.14499 69.5132L2.12041 69.5663L3.02814 69.9859ZM10.8 66.7635L10.9411 65.7735L10.9371 65.773L10.8 66.7635ZM86.9729 68.0501L52.0944 74.2452L52.4442 76.2144L87.3227 70.0192L86.9729 68.0501ZM52.1314 74.2393C48.8812 74.6919 45.9084 73.1159 44.9705 70.831L43.1203 71.5904C44.4862 74.918 48.4834 76.7665 52.4072 76.2202L52.1314 74.2393ZM44.9711 70.8323C43.5528 67.3627 45.5511 63.3866 50.0758 61.81L49.4177 59.9214C44.1145 61.7693 41.1551 66.7827 43.1198 71.5891L44.9711 70.8323ZM50.0826 61.8076L75.0896 52.8895L74.4178 51.0057L49.4108 59.9238L50.0826 61.8076ZM75.0896 52.8895C82.7756 50.1487 91.5202 50.149 99.1909 52.8893L99.8638 51.0059C91.7575 48.11 82.5379 48.1102 74.4178 51.0057L75.0896 52.8895ZM99.1912 52.8894L113.218 57.8954L113.891 56.0118L99.8635 51.0058L99.1912 52.8894ZM112.555 56.9536V83.3988H114.555V56.9536H112.555ZM113.555 82.3988H102.225V84.3988H113.555V82.3988ZM102.225 82.3988C99.811 82.3988 97.3986 82.694 95.0767 83.2595L95.55 85.2027C97.7192 84.6743 99.9728 84.3988 102.225 84.3988V82.3988ZM95.0746 83.2601L62.3833 91.2982L62.8608 93.2403L95.5521 85.2022L95.0746 83.2601ZM62.3497 91.3071C59.0027 92.2545 55.3482 92.2312 52.0338 91.2289L51.4549 93.1433C55.1395 94.2575 59.184 94.2817 62.8944 93.2315L62.3497 91.3071ZM52.0847 91.2458L4.02465 73.8495L3.34394 75.7301L51.404 93.1264L52.0847 91.2458ZM4.04905 73.8587C3.52594 73.6538 3.21644 73.3183 3.08366 73.0038C2.95629 72.702 2.96761 72.3751 3.16386 72.0581L1.46344 71.0052C0.916046 71.8893 0.869034 72.9001 1.24108 73.7815C1.6077 74.6501 2.35536 75.3432 3.31954 75.7209L4.04905 73.8587ZM3.22138 71.9513L3.93586 70.4055L2.12041 69.5663L1.40592 71.1121L3.22138 71.9513ZM3.88065 70.5086C5.07774 68.5562 7.79847 67.3576 10.6629 67.7541L10.9371 65.773C7.44403 65.2895 3.86564 66.7068 2.17562 69.4632L3.88065 70.5086ZM10.6589 67.7535L43.3648 72.4147L43.647 70.4347L10.9411 65.7735L10.6589 67.7535Z" fill="#EC0000" mask="url(#path-13-inside-3_33_987)"/>
<path d="M87.1478 69.0347L52.2693 75.2298C48.6823 75.7292 45.1973 74.0169 44.0454 71.2107C42.354 67.0727 44.8328 62.578 49.7467 60.8657L74.7537 51.9476C82.6568 49.1295 91.6389 49.1295 99.5274 51.9476L113.555 56.9536V83.3988H102.225C99.8919 83.3988 97.5589 83.6842 95.3134 84.2311L62.622 92.2693C59.0933 93.2681 55.2439 93.2444 51.7444 92.1861L3.68429 74.7898C2.197 74.2072 1.57 72.7327 2.31365 71.5317L3.02814 69.9859C4.47169 67.6315 7.62125 66.3236 10.8 66.7635L43.5059 71.4247" stroke="#EC0000" stroke-width="2.7" stroke-linecap="round" stroke-linejoin="round"/>
<mask id="path-16-inside-4_33_987" fill="white">
<path d="M52.2402 45.3841C52.2402 48.4876 49.1489 51.0085 45.3432 51.0085C41.5375 51.0085 38.4316 48.4876 38.4316 45.3841C38.4316 42.2806 41.5229 39.7598 45.3432 39.7598C49.1635 39.7598 52.2402 42.2806 52.2402 45.3841Z"/>
</mask>
<path d="M52.2402 45.3841C52.2402 48.4876 49.1489 51.0085 45.3432 51.0085C41.5375 51.0085 38.4316 48.4876 38.4316 45.3841C38.4316 42.2806 41.5229 39.7598 45.3432 39.7598C49.1635 39.7598 52.2402 42.2806 52.2402 45.3841Z" fill="white"/>
<path d="M51.2402 45.3841C51.2402 47.7543 48.7969 50.0085 45.3432 50.0085V52.0085C49.5009 52.0085 53.2402 49.2209 53.2402 45.3841H51.2402ZM45.3432 50.0085C41.8865 50.0085 39.4316 47.7519 39.4316 45.3841H37.4316C37.4316 49.2233 41.1884 52.0085 45.3432 52.0085V50.0085ZM39.4316 45.3841C39.4316 43.0151 41.8734 40.7598 45.3432 40.7598V38.7598C41.1724 38.7598 37.4316 41.5461 37.4316 45.3841H39.4316ZM45.3432 40.7598C48.8101 40.7598 51.2402 43.0127 51.2402 45.3841H53.2402C53.2402 41.5485 49.5169 38.7598 45.3432 38.7598V40.7598Z" fill="#EC0000" mask="url(#path-16-inside-4_33_987)"/>
<path d="M52.2402 45.3841C52.2402 48.4876 49.1489 51.0085 45.3432 51.0085C41.5375 51.0085 38.4316 48.4876 38.4316 45.3841C38.4316 42.2806 41.5229 39.7598 45.3432 39.7598C49.1635 39.7598 52.2402 42.2806 52.2402 45.3841V45.3841Z" stroke="#EC0000" stroke-width="2.7" stroke-linecap="round" stroke-linejoin="round"/>
</svg>
