<svg width="175" height="71" viewBox="0 0 175 71" fill="none" xmlns="http://www.w3.org/2000/svg">
<path d="M95.7306 8.05559C96.8074 7.56613 98.1583 7.15499 99.7833 6.82216C101.428 6.48932 103.043 6.31312 104.629 6.29354V27.1445H100.811V10.082C99.8519 10.2582 98.8827 10.4735 97.9038 10.728C96.9445 10.963 96.1124 11.2077 95.4076 11.4622C95.4076 10.3071 95.5153 9.17156 95.7306 8.05559ZM135.471 23.8554C135.451 24.3448 135.402 24.9126 135.324 25.5587C135.265 26.2048 135.197 26.7334 135.118 27.1445H122.784V25.8817C122.784 24.5896 122.989 23.454 123.401 22.4751C123.812 21.4962 124.389 20.6249 125.133 19.8614C125.877 19.0782 126.846 18.2559 128.041 17.3945C128.804 16.8659 129.411 16.3764 129.862 15.9261C130.312 15.4562 130.654 14.9668 130.889 14.4577C131.124 13.9291 131.242 13.3418 131.242 12.6957C131.242 11.6972 130.919 10.9434 130.273 10.4344C129.627 9.90575 128.697 9.64144 127.483 9.64144C126.112 9.64144 124.663 9.9547 123.136 10.5812C123.175 9.34777 123.283 8.20243 123.459 7.1452C124.086 6.89068 124.791 6.68511 125.574 6.52848C126.357 6.37185 127.169 6.29354 128.011 6.29354C129.617 6.29354 130.948 6.55785 132.005 7.08646C133.082 7.5955 133.875 8.31011 134.384 9.2303C134.913 10.1505 135.177 11.2175 135.177 12.4314C135.177 13.469 135.001 14.4186 134.648 15.28C134.316 16.1415 133.787 16.954 133.063 17.7175C132.358 18.4615 131.428 19.2251 130.273 20.0082C129.529 20.5172 128.941 20.948 128.511 21.3004C128.08 21.6528 127.708 22.0346 127.395 22.4457C127.081 22.8569 126.856 23.3267 126.719 23.8554H135.471ZM159.558 16.6603C160.85 16.9736 161.829 17.512 162.495 18.2755C163.18 19.0391 163.522 20.0865 163.522 21.4179C163.522 22.71 163.19 23.826 162.524 24.7658C161.878 25.6859 160.909 26.4006 159.617 26.9096C158.344 27.3991 156.778 27.6438 154.918 27.6438C153.371 27.6438 151.932 27.4774 150.601 27.1445C150.601 26.6551 150.64 26.1167 150.718 25.5293C150.797 24.9224 150.894 24.3742 151.012 23.8847C152.245 24.1784 153.449 24.3252 154.624 24.3252C156.308 24.3252 157.561 24.0805 158.383 23.5911C159.225 23.082 159.646 22.3185 159.646 21.3004C159.646 20.2823 159.245 19.5383 158.442 19.0684C157.659 18.5986 156.455 18.3636 154.83 18.3636H152.392V15.2213H154.8C156.249 15.2213 157.336 14.9961 158.06 14.5458C158.804 14.076 159.176 13.3418 159.176 12.3433C159.176 11.4818 158.833 10.8161 158.148 10.3463C157.463 9.87639 156.416 9.64144 155.006 9.64144C153.596 9.64144 152.236 9.87639 150.924 10.3463C150.924 10.033 150.953 9.54355 151.012 8.87789C151.09 8.21222 151.178 7.5955 151.276 7.02773C151.844 6.79279 152.5 6.61658 153.244 6.49911C154.007 6.36206 154.751 6.29354 155.476 6.29354C157.042 6.29354 158.383 6.5089 159.499 6.93963C160.615 7.35077 161.467 7.96749 162.054 8.78979C162.641 9.61208 162.935 10.6008 162.935 11.7559C162.935 12.911 162.641 13.9095 162.054 14.7514C161.467 15.5933 160.635 16.2296 159.558 16.6603Z" fill="#231F20"/>
<path d="M99.1373 55.8847H107.536C107.536 56.3546 107.507 56.9126 107.448 57.5587C107.39 58.1852 107.311 58.7138 107.213 59.1445H95.3195V38.8222H107.595C107.576 39.3508 107.536 39.9283 107.478 40.5548C107.419 41.1618 107.35 41.6708 107.272 42.082H99.1373V47.2507H106.685C106.685 47.7205 106.655 48.2687 106.597 48.8952C106.538 49.5217 106.46 50.0504 106.362 50.4811H99.1373V55.8847ZM114.16 59.4969C113.221 59.4969 112.34 59.4088 111.517 59.2326C110.715 59.0564 110 58.8117 109.373 58.4984C109.393 57.4412 109.55 56.4721 109.843 55.5911C110.489 55.9239 111.155 56.1784 111.84 56.3546C112.526 56.5112 113.201 56.5896 113.867 56.5896C114.669 56.5896 115.267 56.4721 115.658 56.2371C116.05 56.0022 116.245 55.64 116.245 55.1505C116.245 54.759 116.108 54.4359 115.834 54.1814C115.56 53.9269 115.11 53.6822 114.483 53.4472L113.279 52.9773C112.007 52.4879 111.038 51.9005 110.372 51.2153C109.726 50.53 109.403 49.6196 109.403 48.4841C109.403 47.1332 109.873 46.076 110.812 45.3124C111.772 44.5293 113.201 44.1377 115.1 44.1377C115.903 44.1377 116.676 44.1964 117.42 44.3139C118.184 44.4118 118.859 44.5684 119.447 44.7838C119.407 45.704 119.28 46.6633 119.065 47.6618C118.438 47.466 117.831 47.3192 117.244 47.2213C116.676 47.1038 116.059 47.0451 115.394 47.0451C114.552 47.0451 113.945 47.1626 113.573 47.3975C113.221 47.6129 113.044 47.9457 113.044 48.396C113.044 48.768 113.191 49.091 113.485 49.3651C113.798 49.6392 114.297 49.9035 114.983 50.158L116.275 50.6573C117.587 51.1663 118.536 51.7439 119.124 52.39C119.73 53.0361 120.034 53.8877 120.034 54.945C120.034 55.826 119.819 56.6091 119.388 57.2944C118.957 57.9796 118.301 58.518 117.42 58.9096C116.539 59.3012 115.453 59.4969 114.16 59.4969ZM125.993 54.152C125.993 54.9548 126.149 55.5421 126.462 55.9141C126.776 56.2665 127.265 56.4427 127.931 56.4427C128.244 56.4427 128.577 56.4036 128.929 56.3252C129.282 56.2274 129.605 56.1099 129.898 55.9728C129.801 57.1867 129.663 58.1852 129.487 58.9683C128.802 59.3207 127.95 59.4969 126.932 59.4969C125.405 59.4969 124.24 59.0858 123.438 58.2635C122.635 57.4412 122.233 56.198 122.233 54.5338V40.4374C123.389 40.1045 124.642 39.9381 125.993 39.9381V44.4901H130.045C129.987 45.5082 129.879 46.4969 129.722 47.4562H125.993V54.152ZM138.656 44.1377C140.614 44.1377 142.444 44.3824 144.147 44.8719V59.1445H140.711L140.477 57.0888C139.733 58.6942 138.509 59.4969 136.806 59.4969C135.083 59.4969 133.722 58.8802 132.723 57.6468C131.725 56.3938 131.226 54.4849 131.226 51.9201C131.226 49.4336 131.813 47.515 132.988 46.1641C134.162 44.8131 136.052 44.1377 138.656 44.1377ZM137.951 56.4721C138.949 56.4721 139.772 56.149 140.418 55.5029V47.3388C139.889 47.2213 139.272 47.1626 138.568 47.1626C137.256 47.1626 136.336 47.5639 135.807 48.3666C135.298 49.1498 135.044 50.3049 135.044 51.832C135.044 53.457 135.288 54.6415 135.778 55.3855C136.267 56.1099 136.992 56.4721 137.951 56.4721ZM137.687 37.9999C138.254 37.8237 138.94 37.6866 139.742 37.5887C140.565 37.4712 141.289 37.4125 141.916 37.4125C141.759 38.2544 141.426 39.0473 140.917 39.7913C140.408 40.5157 139.781 41.1128 139.037 41.5827C138.313 42.033 137.53 42.2875 136.688 42.3463H136.6L137.687 37.9999ZM153.153 38.8222C154.387 38.4697 155.64 38.2935 156.912 38.2935V59.1445H153.153V38.8222ZM166.761 44.1377C168.719 44.1377 170.55 44.3824 172.253 44.8719V59.1445H168.817L168.582 57.0888C167.838 58.6942 166.615 59.4969 164.911 59.4969C163.188 59.4969 161.828 58.8802 160.829 57.6468C159.831 56.3938 159.331 54.4849 159.331 51.9201C159.331 49.4336 159.919 47.515 161.093 46.1641C162.268 44.8131 164.157 44.1377 166.761 44.1377ZM166.057 56.4721C167.055 56.4721 167.877 56.149 168.523 55.5029V47.3388C167.995 47.2213 167.378 47.1626 166.673 47.1626C165.362 47.1626 164.441 47.5639 163.913 48.3666C163.404 49.1498 163.149 50.3049 163.149 51.832C163.149 53.457 163.394 54.6415 163.883 55.3855C164.373 56.1099 165.097 56.4721 166.057 56.4721ZM165.792 37.9999C166.36 37.8237 167.045 37.6866 167.848 37.5887C168.67 37.4712 169.395 37.4125 170.021 37.4125C169.865 38.2544 169.532 39.0473 169.023 39.7913C168.514 40.5157 167.887 41.1128 167.143 41.5827C166.419 42.033 165.636 42.2875 164.794 42.3463H164.706L165.792 37.9999Z" fill="#EC0000"/>
<line x1="113.292" y1="5.49414" x2="113.292" y2="28.0383" stroke="#231F20" stroke-width="1.14632"/>
<line x1="143.862" y1="5.49414" x2="143.862" y2="28.0383" stroke="#231F20" stroke-width="1.14632"/>
<path d="M43.9103 52.8192C53.5258 52.8192 61.3208 45.0242 61.3208 35.4089C61.3208 25.7933 53.5257 17.9985 43.9103 17.9985C34.295 17.9985 26.5 25.7933 26.5 35.4089C26.5 45.0242 34.2948 52.8192 43.9103 52.8192Z" fill="#EC0000"/>
<path d="M48.3832 33.9096C48.3533 33.2013 48.1552 32.4989 47.7884 31.8654L44.5563 26.2665C44.3102 25.8393 44.1397 25.3826 44.0449 24.9126L43.9101 25.146C43.1102 26.5316 43.1102 28.2387 43.9101 29.6244L46.496 34.1031C47.2959 35.4881 47.2959 37.1956 46.496 38.5813L46.361 38.8148C46.2659 38.3463 46.0956 37.8885 45.8498 37.4606L43.4823 33.36L41.9704 30.7414C41.7242 30.3141 41.5534 29.8579 41.4585 29.3874L41.3242 29.6209C40.5268 31.0023 40.5242 32.7031 41.316 34.0856L43.9096 38.578C44.7095 39.9637 44.7095 41.6707 43.9096 43.0566L43.7748 43.2901C43.68 42.8215 43.5097 42.3637 43.2634 41.936L40.0316 36.3372C39.5985 35.5864 39.4007 34.7409 39.4363 33.9042C35.9741 34.8132 33.5859 36.7317 33.5859 38.9547C33.5859 42.0462 38.2075 44.5536 43.9078 44.5536C49.6087 44.5536 54.2302 42.0474 54.2302 38.9547C54.2302 36.7317 51.8425 34.8117 48.3813 33.9084H48.3835V33.9096H48.3832Z" fill="white"/>
<path d="M75.3747 9.77926C75.9087 9.87264 76.3765 10.1671 76.6847 10.6006C79.9256 15.2259 82.1899 20.366 83.417 25.8782C84.6438 31.3902 84.7724 37.0053 83.7995 42.5682C82.8265 48.1311 80.7995 53.3693 77.7754 58.1383C74.7505 62.9072 70.8759 66.9735 66.2593 70.2232C65.8116 70.5378 65.2683 70.6593 64.7293 70.565C64.1908 70.4709 63.7203 70.1723 63.406 69.7248C62.7577 68.8 62.9814 67.5204 63.9048 66.8717C64.8685 66.1945 65.8253 65.4476 66.8312 64.587C73.6249 58.752 78.2154 50.6815 79.7577 41.8613C81.3002 33.0408 79.7212 23.8916 75.3084 16.0956C74.644 14.9307 73.9978 13.9039 73.338 12.9646C72.6994 12.0417 72.927 10.7656 73.8438 10.1206C74.2924 9.80636 74.8352 9.68484 75.3747 9.77926Z" fill="#EC0000"/>
<path d="M19.715 0.0311667C20.254 0.125441 20.7239 0.423752 21.0378 0.870549C21.6863 1.79527 21.4624 3.07549 20.5391 3.72528C19.578 4.40069 18.6213 5.14714 17.613 6.00946C10.8199 11.8431 6.22876 19.9132 4.68627 28.7334C3.14407 37.553 4.7238 46.7028 9.13576 54.501C9.79792 55.663 10.4437 56.6891 11.1108 57.6398C11.4253 58.0867 11.5461 58.6302 11.452 59.1693C11.3577 59.7082 11.0595 60.1779 10.6118 60.4924C10.1641 60.807 9.62069 60.9285 9.082 60.8344C8.54316 60.7401 8.07313 60.4416 7.75889 59.9942C4.51857 55.3696 2.25391 50.23 1.0273 44.718C-0.199306 39.2057 -0.328281 33.5901 0.644693 28.027C1.61752 22.4644 3.64449 17.2263 6.66885 12.4579C9.69337 7.68941 13.5681 3.62282 18.1837 0.372669C18.6318 0.0581245 19.1756 -0.0631074 19.715 0.0311667Z" fill="#EC0000"/>
<path d="M45.1063 6.44247C45.5261 6.10395 46.0748 5.9425 46.6081 5.99954C54.3614 6.84816 61.3257 10.6586 66.2194 16.7295C71.1128 22.8003 73.3581 30.4155 72.5409 38.1689C72.4823 38.7134 72.2155 39.2022 71.7896 39.5456C71.3636 39.8891 70.8296 40.0457 70.2854 39.9875C69.1626 39.8661 68.3473 38.8549 68.4685 37.7237C68.5999 36.4181 68.6291 35.0949 68.5563 33.8025C68.3062 28.4654 66.4011 23.4456 63.0481 19.2858C59.6948 15.126 55.1942 12.1985 50.0441 10.8245C48.7824 10.475 47.4828 10.2231 46.1734 10.0749C45.6374 10.0173 45.1358 9.7437 44.7974 9.32371C44.4589 8.90372 44.2973 8.3552 44.3554 7.8195L44.3604 7.7699C44.4291 7.25221 44.6988 6.77087 45.1063 6.44247Z" fill="#EC0000"/>
<path d="M14.5799 31.0496C15.0063 30.7059 15.5402 30.5488 16.0831 30.6071C17.2063 30.7282 18.0223 31.7405 17.902 32.8635L17.843 33.4185L17.8518 33.4294C17.7638 34.5555 17.7508 35.6869 17.8126 36.7927C18.0633 42.1296 19.9683 47.1493 23.3212 51.3092C26.6745 55.4693 31.175 58.3964 36.3251 59.7709C37.5841 60.1191 38.8834 60.3714 40.1968 60.5214C41.3188 60.642 42.1339 61.6534 42.014 62.7761C41.9554 63.3201 41.689 63.8092 41.2631 64.1525C40.837 64.4958 40.3027 64.6526 39.7612 64.5944C32.0099 63.7466 25.0455 59.9361 20.151 53.8639C15.2568 47.7921 13.0115 40.1777 13.8285 32.4258C13.8869 31.882 14.154 31.3929 14.5799 31.0496Z" fill="#EC0000"/>
</svg>
