<svg width="1167" height="475" viewBox="0 0 1167 475" fill="none" xmlns="http://www.w3.org/2000/svg">
<path d="M648.601 46.4432C647.209 53.6022 646.414 61.5562 646.414 69.5102C655.959 66.1292 669.877 62.5502 683.002 60.1642V175.697H708.853V34.5122C686.98 34.9092 662.918 39.8812 648.601 46.4432ZM858.429 153.425C861.411 142.29 869.764 136.125 882.49 127.376C905.358 111.865 915.7 97.3492 915.7 76.0722C915.7 52.0102 900.785 34.5112 867.179 34.5112C855.246 34.5112 844.509 36.8972 836.356 40.2772C834.965 48.4302 834.368 56.5832 834.168 63.5432C843.912 59.5662 853.656 57.1802 863.599 57.1802C879.905 57.1802 889.052 64.3392 889.052 77.8602C889.052 91.3822 881.894 99.5352 867.377 109.677C845.504 125.386 831.782 139.704 831.782 167.145V175.696H915.3C916.489 169.928 917.489 159.589 917.69 153.424H858.429V153.425ZM1080.78 104.707C1095.3 98.9402 1103.65 87.2082 1103.65 71.4982C1103.65 47.8352 1084.96 34.5122 1053.14 34.5122C1043.6 34.5122 1032.46 36.3012 1024.71 39.4832C1023.12 48.0342 1022.32 58.3742 1022.32 61.9532C1030.67 58.9712 1039.82 57.1812 1049.96 57.1812C1069.65 57.1812 1078.2 64.3402 1078.2 75.4752C1078.2 89.1962 1067.86 94.9632 1048.57 94.9632H1032.26V116.24H1048.77C1070.25 116.24 1081.38 122.007 1081.38 136.125C1081.38 150.045 1070.25 156.607 1047.38 156.607C1039.22 156.607 1030.48 155.414 1022.92 153.624C1021.33 160.186 1020.13 168.936 1020.13 175.697C1028.09 177.685 1038.03 179.077 1049.37 179.077C1087.74 179.077 1107.63 162.97 1107.63 136.921C1107.63 118.427 1097.69 108.882 1080.78 104.707Z" fill="#231F20"/>
<path d="M671.668 340.035H720.586C721.778 334.269 722.773 324.724 722.773 318.162H671.669V283.164H726.751C727.943 277.198 728.739 267.454 728.938 261.091H645.818V398.697H726.353C727.546 392.929 728.541 382.987 728.541 376.624H671.67V340.035H671.668ZM773.392 401.083C800.635 401.083 813.162 387.561 813.162 370.261C813.162 355.347 804.81 347.791 787.71 341.229L778.96 337.848C770.012 334.468 765.835 331.087 765.835 325.917C765.835 320.15 770.012 316.77 781.744 316.77C791.091 316.77 798.646 318.36 806.6 320.947C807.992 314.782 808.986 307.623 809.185 301.459C801.032 298.476 790.293 297.084 779.755 297.084C753.109 297.084 741.178 308.817 741.178 326.514C741.178 343.019 751.717 350.973 767.426 356.939L775.578 360.121C783.931 363.303 787.51 366.286 787.51 371.655C787.51 378.217 782.34 381.398 771.403 381.398C762.456 381.398 752.91 379.011 744.161 374.637C742.371 380.205 741.179 386.965 740.979 394.324C749.132 398.498 760.268 401.083 773.392 401.083ZM853.509 364.893V319.554H878.763C879.955 312.197 880.553 306.231 880.951 299.47H853.51V268.647C844.958 268.647 836.408 269.643 828.057 272.029V367.477C828.057 390.345 839.392 401.083 859.872 401.083C866.037 401.083 871.804 400.288 877.173 397.504C878.565 391.141 879.361 384.182 879.956 377.221C875.979 379.209 870.81 380.403 866.634 380.403C857.486 380.402 853.509 375.63 853.509 364.893ZM961.52 251.546C953.77 251.546 941.04 252.938 932.89 255.524L925.53 284.954H926.131C943.43 283.561 958.14 268.846 961.52 251.546ZM939.25 297.083C902.664 297.083 888.943 317.764 888.943 349.779C888.943 385.969 904.652 401.083 926.729 401.083C938.859 401.083 946.809 395.117 951.579 384.777L953.17 398.697H976.44V302.054C965.3 298.873 953.17 297.083 939.25 297.083ZM934.48 380.602C921.751 380.602 914.79 371.852 914.79 349.184C914.79 330.093 919.96 317.565 938.66 317.565C943.631 317.565 947.6 317.963 951.181 318.758V374.039C947.209 378.016 941.84 380.602 934.48 380.602ZM1037.42 398.697H1062.87V257.512C1054.72 257.512 1045.77 258.705 1037.42 261.091V398.697ZM1151.83 251.546C1144.08 251.546 1131.35 252.938 1123.2 255.524L1115.84 284.954H1116.44C1133.74 283.561 1148.45 268.846 1151.83 251.546ZM1129.56 297.083C1092.97 297.083 1079.25 317.764 1079.25 349.779C1079.25 385.969 1094.96 401.083 1117.03 401.083C1129.16 401.083 1137.12 395.117 1141.89 384.777L1143.48 398.697H1166.75V302.054C1155.61 298.873 1143.48 297.083 1129.56 297.083ZM1124.79 380.602C1112.06 380.602 1105.1 371.852 1105.1 349.184C1105.1 330.093 1110.27 317.565 1128.96 317.565C1133.94 317.565 1137.91 317.963 1141.49 318.758V374.039C1137.52 378.016 1132.15 380.602 1124.79 380.602Z" fill="white"/>
<path d="M295.682 355.061C360.245 355.061 412.584 302.722 412.584 238.16C412.584 173.597 360.244 121.259 295.682 121.259C231.12 121.259 178.781 173.597 178.781 238.16C178.781 302.722 231.119 355.061 295.682 355.061Z" fill="white"/>
<path d="M325.725 228.094C325.524 223.338 324.194 218.622 321.731 214.368L300.029 176.775C298.377 173.906 297.232 170.84 296.595 167.684L295.69 169.251C290.319 178.555 290.319 190.017 295.69 199.321L313.053 229.393C318.424 238.693 318.424 250.158 313.053 259.462L312.147 261.03C311.508 257.884 310.365 254.81 308.714 251.937L292.818 224.404L282.666 206.821C281.013 203.952 279.866 200.889 279.229 197.73L278.327 199.298C272.973 208.573 272.956 219.993 278.272 229.276L295.687 259.44C301.058 268.744 301.058 280.206 295.687 289.511L294.782 291.079C294.145 287.933 293.002 284.859 291.348 281.987L269.648 244.394C266.74 239.353 265.412 233.676 265.651 228.058C242.404 234.161 226.369 247.043 226.369 261.969C226.369 282.727 257.4 299.563 295.675 299.563C333.953 299.563 364.984 282.735 364.984 261.969C364.984 247.043 348.952 234.151 325.712 228.086H325.727V228.094H325.725Z" fill="#EC0000"/>
<path d="M506.946 66.0699C510.532 66.6969 513.673 68.6739 515.742 71.5849C537.503 102.641 552.707 137.154 560.946 174.166C569.183 211.176 570.047 248.878 563.514 286.23C556.981 323.582 543.371 358.754 523.066 390.775C502.755 422.796 476.739 450.099 445.741 471.919C442.735 474.031 439.087 474.847 435.468 474.214C431.852 473.582 428.693 471.577 426.583 468.572C422.23 462.363 423.732 453.771 429.932 449.415C436.403 444.868 442.827 439.853 449.581 434.075C495.197 394.896 526.02 340.707 536.376 281.484C546.733 222.259 536.131 160.827 506.501 108.481C502.04 100.659 497.701 93.7649 493.271 87.4579C488.983 81.2609 490.511 72.6929 496.667 68.3619C499.679 66.2519 503.324 65.4359 506.946 66.0699Z" fill="white"/>
<path d="M133.215 0.617959C136.834 1.25096 139.989 3.25396 142.097 6.25396C146.451 12.463 144.948 21.059 138.748 25.422C132.295 29.957 125.871 34.969 119.101 40.759C73.4891 79.929 42.6621 134.115 32.3051 193.338C21.9501 252.557 32.5571 313.993 62.1811 366.354C66.6271 374.156 70.9631 381.046 75.4421 387.429C77.5541 390.43 78.3651 394.079 77.7331 397.699C77.1001 401.317 75.0981 404.471 72.0921 406.583C69.0861 408.695 65.4371 409.511 61.8201 408.879C58.2021 408.246 55.0461 406.242 52.9361 403.238C31.1791 372.186 15.9731 337.676 7.73712 300.666C-0.498877 263.654 -1.36488 225.948 5.16812 188.595C11.7001 151.245 25.3101 116.074 45.6171 84.057C65.9251 52.039 91.9421 24.734 122.933 2.91097C125.942 0.798966 129.593 -0.0150407 133.215 0.617959Z" fill="white"/>
<path d="M303.709 43.6668C306.528 41.3938 310.212 40.3098 313.793 40.6928C365.852 46.3908 412.614 71.9758 445.472 112.739C478.329 153.501 493.405 204.633 487.918 256.693C487.524 260.349 485.733 263.631 482.873 265.937C480.013 268.243 476.427 269.295 472.773 268.904C465.234 268.089 459.76 261.299 460.574 253.704C461.456 244.937 461.652 236.053 461.163 227.375C459.484 191.539 446.692 157.834 424.179 129.903C401.663 101.972 371.444 82.3158 336.864 73.0898C328.392 70.7428 319.666 69.0518 310.874 68.0568C307.275 67.6698 303.907 65.8328 301.635 63.0128C299.362 60.1928 298.277 56.5098 298.667 52.9128L298.701 52.5798C299.162 49.1038 300.973 45.8718 303.709 43.6668Z" fill="white"/>
<path d="M98.729 208.891C101.592 206.583 105.177 205.528 108.822 205.92C116.364 206.733 121.843 213.53 121.035 221.07L120.639 224.797L120.698 224.87C120.107 232.431 120.02 240.028 120.435 247.453C122.118 283.287 134.909 316.992 157.422 344.923C179.938 372.856 210.156 392.51 244.736 401.739C253.19 404.077 261.914 405.771 270.733 406.778C278.266 407.588 283.739 414.379 282.934 421.917C282.541 425.57 280.752 428.854 277.892 431.159C275.031 433.464 271.444 434.517 267.808 434.126C215.762 428.434 169 402.848 136.136 362.077C103.274 321.308 88.198 270.181 93.684 218.131C94.076 214.48 95.869 211.196 98.729 208.891Z" fill="white"/>
<path d="M767.526 30.915V183.565" stroke="#231F20" stroke-width="7.7619"/>
<path d="M974.51 30.915V183.565" stroke="#231F20" stroke-width="7.7619"/>
</svg>
